<?xml version="1.0" encoding="UTF-8" standalone="no"?>
<svg
   xmlns:dc="http://purl.org/dc/elements/1.1/"
   xmlns:cc="http://creativecommons.org/ns#"
   xmlns:rdf="http://www.w3.org/1999/02/22-rdf-syntax-ns#"
   xmlns:svg="http://www.w3.org/2000/svg"
   xmlns="http://www.w3.org/2000/svg"
   viewBox="0 0 776.73376 938.26813"
   height="938.26813"
   width="776.73376"
   id="svg2"
   version="1.1">
  <metadata
     id="metadata8">
    <rdf:RDF>
      <cc:Work
         rdf:about="">
        <dc:format>image/svg+xml</dc:format>
        <dc:type
           rdf:resource="http://purl.org/dc/dcmitype/StillImage" />
        <dc:title></dc:title>
      </cc:Work>
    </rdf:RDF>
  </metadata>
  <defs
     id="defs6" />
  <path
     id="path835"
     fill="#828282"
     d="m 178.25986,933.53369 c -1.1399,-2.6125 -2.4484,-5.875 -2.9077,-7.25 -0.8406,-2.51659 -2.2413,-6.28449 -5.762,-15.5 -5.9709,-15.62888 -16.7089,-43.63192 -18.2143,-47.5 -0.9632,-2.475 -3.661,-9.45 -5.9952,-15.5 -2.3341,-6.05 -5.1143,-13.25 -6.1783,-16 -2.3778,-6.14574 -7.1309,-18.80583 -10.3247,-27.5 -1.3133,-3.575 -3.3409,-8.975 -4.5059,-12 -1.1649,-3.025 -2.5006,-6.625 -2.9682,-8 -0.4676,-1.375 -1.8144,-4.975 -2.9929,-8 -1.1785,-3.025 -3.5014,-9.1 -5.1619,-13.5 -6.1066,-16.18097 -7.573,-20.03239 -8.1861,-21.5 -0.3447,-0.825 -4.9119,-12.975 -10.149301,-27 -5.2375,-14.025 -9.9576,-26.4 -10.4892,-27.5 -0.5315,-1.1 -1.5973,-3.8 -2.3684,-6 -2.8549,-8.14558 -17.7542,-47.1075 -19.178,-50.15113 -0.8108,-1.73312 -1.4742,-3.79562 -1.4742,-4.58333 0,-0.78771 -0.3084,-1.74061 -0.6853,-2.11754 -0.377,-0.37694 -1.2103,-2.13944 -1.8519,-3.91667 -3.1467,-8.71617 -30.1088,-80.34351 -33.1344,-88.02434 -1.905,-4.83615 -3.5457,-10.01115 -3.646,-11.5 -0.1763,-2.61672 -0.025,-2.699 4.5403,-2.46726 2.5975,0.13185 9.5725,1.61378 15.5,3.29318 5.9275,1.6794 13.4773,3.73507 16.7773,4.56815 3.3,0.83309 8.25,2.14883 11,2.92386 2.75,0.77504 7.25,1.87759 10,2.45012 2.75,0.57253 7.25,1.66963 10,2.438 19.706901,5.50628 48.000301,12.03469 65.500001,15.11343 53.5871,9.42767 90.9604,13.3398 129,13.50332 7.425,0.0319 16.875,0.47728 21,0.98968 13.8136,1.71593 84.1164,-3.72968 108.5,-8.40434 53.1333,-10.18639 95.7224,-24.31987 133.2087,-44.20622 46.4692,-24.6518 79.5453,-56.9717 98.898,-96.63717 1.9513,-3.99946 3.9482,-8.02936 4.4376,-8.95533 1.7673,-3.34429 5.1302,-14.33474 7.1086,-23.23218 1.5035,-6.76169 2.1498,-14.19757 2.5282,-29.08423 0.5661,-22.27618 -0.7021,-35.48998 -5.2074,-54.25578 -3.2143,-13.38829 -4.6816,-18.132 -9.9737,-32.24422 -0.825,-2.2 -2.175,-5.8 -3,-8 -0.825,-2.2 -2.1154,-5.6875 -2.8675,-7.75 -0.7522,-2.0625 -2.7168,-7.35 -4.3659,-11.75 -4.2073,-11.22566 -5.0935,-14.8689 -5.856,-24.07445 -1.0234,-12.35457 0.8719,-14.39985 9.718,-10.48683 8.536,3.77592 53.1135,52.95106 73.029,80.56128 17.21,23.85925 35.7905,57.65268 43.9862,80 6.4128,17.48594 11.7051,34.12281 12.8832,40.5 0.4572,2.475 1.2945,6.31917 1.8606,8.54261 0.5661,2.22344 1.5202,7.39844 2.1202,11.5 0.6001,4.10156 1.5161,10.38239 2.0356,13.95739 2.2561,15.52476 2.7106,27.83444 1.9385,52.5 -0.5962,19.04583 -1.206,26.93614 -2.2798,29.5 -0.8062,1.925 -1.9446,7.63754 -2.5296,12.69454 -0.5851,5.057 -1.8004,10.61892 -2.7006,12.35983 -1.8177,3.51501 -8.4719,23.13672 -8.4719,24.98164 0,1.01038 -6.8879,18.12742 -11.6551,28.96399 -4.3827,9.96252 -18.9173,37.90963 -24.9636,48 -21.081,35.1807 -44.4212,63.38485 -79.3682,95.90793 -32.9234,30.63984 -65.899,54.28054 -115.5131,82.81318 -9.4515,5.43549 -49.3757,25.80563 -52.5,26.7866 -1.375,0.43172 -6.6653,2.7441 -11.7562,5.13862 -5.0909,2.39452 -9.5037,4.35367 -9.8061,4.35367 -0.3024,0 -3.2099,1.31979 -6.4611,2.93288 -3.2512,1.61308 -11.6635,5.0182 -18.6939,7.56694 -7.0305,2.54874 -14.5827,5.32967 -16.7827,6.17986 -13.3739,5.16831 -25.7704,9.4939 -38,13.25958 -5.5,1.69354 -12.025,3.72306 -14.5,4.51005 -2.475,0.78698 -9.225,2.8451 -15,4.57359 -5.775,1.72849 -11.625,3.5422 -13,4.03047 -1.375,0.48827 -8.125,2.26737 -15,3.95356 -6.875,1.68619 -14.3,3.56621 -16.5,4.17782 -2.2,0.6116 -5.575,1.43905 -7.5,1.83878 -1.925,0.39973 -7.775,1.84895 -13,3.22049 -10.9783,2.88177 -25.2322,5.81689 -54.5,11.22252 -7.7,1.42215 -17.375,3.24206 -21.5,4.04424 -24.664,4.79635 -23.4757,4.85365 -26.1437,-1.26078 z m 139.6437,-387.78867 c -3.3,-0.75408 -9.15,-1.84842 -13,-2.43187 -6.6513,-1.00796 -19.6132,-3.42856 -35,-6.53615 -9.921,-2.00368 -22.6015,-4.33294 -32.5,-5.96985 -14.6549,-2.42349 -21.3353,-3.58741 -26.5,-4.6171 -2.75,-0.54826 -9.4371,-1.63296 -14.8603,-2.41044 -5.4231,-0.77748 -11.2731,-1.84178 -13,-2.36512 -1.7268,-0.52333 -5.8397,-1.23136 -9.1397,-1.57339 -3.3,-0.34204 -7.35,-1.0324 -9,-1.53414 -1.65,-0.50174 -7.5,-1.63507 -13,-2.5185 -10.5811,-1.69959 -18.5177,-3.06381 -38,-6.53183 -6.6,-1.17486 -15.600001,-2.73347 -20.000001,-3.46357 -4.4,-0.7301 -10.025,-1.7991 -12.5,-2.37555 -2.475,-0.57645 -7.875,-1.52367 -12,-2.10493 -4.125,-0.58126 -12.225,-1.96826 -18,-3.08222 -5.775,-1.11396 -13.1762,-2.43603 -16.4471,-2.93793 -10.1453,-1.55675 -11.5153,-3.47177 -15.0295,-21.00874 -0.9368,-4.675 -2.304,-11.2 -3.0381,-14.5 -0.7341,-3.3 -2.0366,-9.375 -2.8944,-13.5 -0.8578,-4.125 -2.2155,-10.65 -3.017,-14.5 -0.8016,-3.85 -1.9670997,-10.825 -2.5899997,-15.5 -0.6228,-4.675 -1.7504,-12.55 -2.5056,-17.5 -2.4184,-15.85148 -3.3903,-24.72637 -3.9974,-36.5 -0.3262,-6.325 -0.95139999,-16.675 -1.38929999,-23 -1.71420001,-24.75561 1.23829999,-79.9019 5.53609999,-103.40014 0.8148,-4.45492 1.8904,-10.57486 2.3903,-13.59986 0.4998,-3.025 2.0821997,-9.775 3.5163997,-15 1.4341,-5.225 2.9473,-11.075 3.3627,-13 1.5531,-7.19856 10.5502,-29.94113 16.8024,-42.47257 23.2682,-46.63722 50.3466,-79.263488 86.388401,-104.087938 6.678,-4.599614 16.9543,-10.758977 29.0104,-17.388109 8.1907,-4.503734 42.8539,-17.079858 52.4017,-19.011838 2.2,-0.445165 6.5569,-1.5035873 9.6821,-2.3520493 3.1251,-0.848462 12.7919,-2.73812 21.4816,-4.19924 8.6898,-1.461119 16.2256,-2.919836 16.7462,-3.241593 0.5206,-0.321757 10.8789,-0.89439597 23.0183,-1.27253097 44.2426,-1.37812103 88.0735,2.76235697 133.0718,12.57059927 6.6,1.438596 13.8,2.997914 16,3.465151 5.3089,1.127513 25.8321,6.666743 31.5,8.501896 2.475,0.801355 10.575,3.318246 18,5.593092 20.8212,6.379117 28.4043,9.098821 63,22.595022 3.575,1.39465 10.6226,4.50771 15.6614,6.91792 5.0387,2.4102 9.3838,4.38219 9.6557,4.38219 0.2719,0 5.3743,2.27611 11.3386,5.05802 5.9644,2.78192 12.6443,5.88619 14.8443,6.89839 2.2,1.0122 6.5713,3.03608 9.7139,4.49752 10.2508,4.76699 17.2852,15.60303 11.9741,18.44544 -2.8822,1.542518 -14.9335,4.100628 -19.3182,4.100628 -2.2033,0 -8.8129,-0.67029 -14.6879,-1.48954 -5.8751,-0.81925 -18.3319,-2.405268 -27.6819,-3.524488 -9.35,-1.11921 -22.4,-2.69959 -29,-3.51194 -29.4427,-3.6239 -72.9685,-4.76424 -96.5,-2.52822 -36.6884,3.48622 -65.5322,11.647108 -90.9371,25.729188 -19.2034,10.64451 -33.4483,25.93763 -44.4713,47.74366 -8.0059,15.83758 -10.5737,23.47556 -14.1469,42.08134 -3.5183,18.3195 -4.5023,55.93332 -2.0538,78.5 4.0127,36.98162 8.4348,60.49281 19.185,102 4.3495,16.79386 15.4437,52.91869 18.0122,58.65113 0.7765,1.73312 1.4119,3.51047 1.4119,3.94966 0,1.04207 5.738,16.75213 7.9985,21.89921 0.9663,2.2 2.9695,7.15 4.4517,11 1.4822,3.85 4.0587,10.375 5.7256,14.5 1.6668,4.125 3.6229,9.075 4.3468,11 0.7239,1.925 2.7024,6.95622 4.3968,11.18048 1.6943,4.22427 3.0947,8.27427 3.1119,9 0.017,0.72574 1.1381,3.56952 2.4908,6.31952 2.7213,5.53203 3.0883,8.48964 1.2779,10.3 -1.6007,1.6007 -13.6514,1.4091 -21.3,-0.33867 z m 160.4724,-110.78283 c -0.2901,-0.31183 -4.4507,-1.05448 -9.2456,-1.65032 -4.795,-0.59584 -12.8826,-2.21744 -17.9724,-3.60354 -5.0899,-1.38611 -10.9571,-2.95438 -13.0382,-3.48505 -2.0811,-0.53067 -4.5561,-1.39545 -5.5,-1.92174 -0.9439,-0.5263 -6.0921,-2.77542 -11.4403,-4.99806 -8.4379,-3.50661 -16.5801,-7.63502 -21.7759,-11.04122 -0.825,-0.54084 -2.4579,-1.40038 -3.6287,-1.91009 -1.1708,-0.50972 -8.3708,-5.66905 -16,-11.46519 -14.2057,-10.79249 -31.2127,-27.66978 -38.8344,-38.53828 -12.3552,-17.61842 -19.2047,-30.03704 -21.5463,-39.06501 -0.4993,-1.925 -1.65,-5.975 -2.557,-9 -4.5085,-15.03618 -5.752,-22.59724 -5.8381,-35.5 -0.1153,-17.26364 2.5123,-28.19384 11.058,-46 9.3363,-19.45327 34.6387,-39.42661 59.3465,-46.84719 47.5379,-14.27724 111.4461,3.01751 159.5,43.16366 46.5832,38.91754 69.0354,88.58723 59.4689,131.55974 -3.373,15.15105 -3.9095,16.76883 -8.7783,26.46765 -6.0865,12.12459 -19.3659,26.59802 -30.9177,33.69785 -4.2751,2.62751 -8.4479,5.32677 -9.2729,5.99835 -2.3221,1.89029 -24.322,9.3042 -34.0177,11.46388 -8.3666,1.86364 -37.8815,3.88721 -39.0099,2.67456 z"
      />
</svg>
