<?xml version="1.0" encoding="UTF-8" standalone="no"?>
<svg
   xmlns:dc="http://purl.org/dc/elements/1.1/"
   xmlns:cc="http://creativecommons.org/ns#"
   xmlns:rdf="http://www.w3.org/1999/02/22-rdf-syntax-ns#"
   xmlns:svg="http://www.w3.org/2000/svg"
   xmlns="http://www.w3.org/2000/svg"
   viewBox="0 0 682.58106 682.36341"
   height="682.3634"
   width="682.58105"
   id="svg2"
   version="1.1">
  <metadata
     id="metadata8">
    <rdf:RDF>
      <cc:Work
         rdf:about="">
        <dc:format>image/svg+xml</dc:format>
        <dc:type
           rdf:resource="http://purl.org/dc/dcmitype/StillImage" />
        <dc:title></dc:title>
      </cc:Work>
    </rdf:RDF>
  </metadata>
  <defs
     id="defs6" />
  <path
     id="path817"
     fill="#828282"
     d="M 302.62391,680.56439 C 168.58621,666.55175 53.588247,570.53555 14.072527,439.64172 -4.6908424,377.48899 -4.6908424,305.09206 14.072527,242.93933 47.258487,133.01251 133.01251,47.258494 242.93931,14.072528 c 62.1528,-18.7633706 134.5497,-18.7633706 196.7024,0 109.9268,33.185966 195.6809,118.939982 228.8668,228.866802 18.7634,62.15273 18.7634,134.54966 0,196.70239 -39.7737,131.74852 -154.7913,227.21604 -290.3659,241.0112 -22.7281,2.31266 -52.8885,2.2773 -75.5187,-0.0885 z m 169.7413,-160.64198 c 1.8889,-1.48579 3.7537,-3.73579 4.1439,-5 1.429,-4.62948 50.2356,-311.79396 50.3327,-316.76912 0.07,-3.57184 -0.7721,-6.00954 -2.7626,-8 l -2.8628,-2.86277 H 341.29051 161.3646 l -2.86279,2.86277 c -1.99272,1.99272 -2.83097,4.42408 -2.75813,8 0.0924,4.53674 49.85863,308.50603 51.76183,316.15833 0.4132,1.66159 2.2648,4.21159 4.1147,5.66667 3.3009,2.59648 5.7196,2.64557 130.337,2.64557 125.4997,0 127.0136,-0.0313 130.408,-2.70145 z M 302.01471,408.0503 c -0.4216,-0.68213 -5.2939,-25.37388 -10.8274,-54.87056 -8.0416,-42.86594 -9.71,-53.85294 -8.3122,-54.73936 0.9618,-0.60996 27.4176,-1.11822 58.7906,-1.12944 47.6053,-0.0171 57.16,0.28758 57.7563,1.84136 0.797,2.07697 -16.2187,102.41339 -18.1692,107.13823 l -1.2384,3 h -38.6166 c -22.3735,0 -38.939,-0.52167 -39.3831,-1.24023 z"
     />
</svg>
