<?xml version="1.0" encoding="UTF-8" standalone="no"?>
<svg
   xmlns:dc="http://purl.org/dc/elements/1.1/"
   xmlns:cc="http://creativecommons.org/ns#"
   xmlns:rdf="http://www.w3.org/1999/02/22-rdf-syntax-ns#"
   xmlns:svg="http://www.w3.org/2000/svg"
   xmlns="http://www.w3.org/2000/svg"
   viewBox="0 0 655.15131 602.37445"
   height="602.37445"
   width="655.15131"
   id="svg908"
   version="1.1">
  <metadata
     id="metadata914">
    <rdf:RDF>
      <cc:Work
         rdf:about="">
        <dc:format>image/svg+xml</dc:format>
        <dc:type
           rdf:resource="http://purl.org/dc/dcmitype/StillImage" />
        <dc:title></dc:title>
      </cc:Work>
    </rdf:RDF>
  </metadata>
  <defs
     id="defs912" />
  <path
     id="path1461"
     fill="#828282"
     d="M 168.63544,488.05961 C 82.232361,425.22796 10.012378,372.41389 8.146588,370.69504 3.8044175,366.69482 0.03608754,358.53379 5.753519e-5,353.0522 -0.01544246,350.6995 3.1028375,339.1795 6.929468,327.4522 10.756108,315.7249 35.586419,239.31385 62.107938,157.64985 88.629461,75.985851 111.10341,7.666982 112.05005,5.830144 c 3.38048,-6.55937698 14.15889,-7.90436 19.1497,-2.389594 1.21726,1.345079 18.73875,53.296429 38.93659,115.44744 l 36.7234,113.00186 h 120.7747 120.7746 l 36.7233,-112.98233 c 20.1978,-62.140279 37.7272,-114.09163 38.9542,-115.447446 5.0081,-5.533905 15.7938,-4.19935198 19.1547,2.37007 2.7244,5.325209 111.0439,339.463706 111.7725,344.790096 0.8643,6.31776 -2.4211,14.76055 -7.6976,19.78164 -6.3902,6.08082 -318.0498,232.05807 -319.9281,231.97254 -0.9108,-0.0415 -72.3495,-51.48315 -158.7526,-114.31481 z"
     />
</svg>
