<?xml version="1.0" encoding="UTF-8" standalone="no"?>
<svg
   xmlns:dc="http://purl.org/dc/elements/1.1/"
   xmlns:cc="http://creativecommons.org/ns#"
   xmlns:rdf="http://www.w3.org/1999/02/22-rdf-syntax-ns#"
   xmlns:svg="http://www.w3.org/2000/svg"
   xmlns="http://www.w3.org/2000/svg"
   xmlns:sodipodi="http://sodipodi.sourceforge.net/DTD/sodipodi-0.dtd"
   xmlns:inkscape="http://www.inkscape.org/namespaces/inkscape"
   viewBox="0 0 600.36666 158.43552"
   version="1.1"
   id="svg14"
   sodipodi:docname="logo.svg"
   inkscape:version="0.92.2 (5c3e80d, 2017-08-06)"
   width="600.36664"
   height="158.43552">
  <metadata
     id="metadata11">
    <rdf:RDF>
      <cc:Work
         rdf:about="">
        <dc:format>image/svg+xml</dc:format>
        <dc:type
           rdf:resource="http://purl.org/dc/dcmitype/StillImage" />
        <dc:title>Ativo 1</dc:title>
      </cc:Work>
    </rdf:RDF>
  </metadata>
  <sodipodi:namedview
     borderopacity="1"
     objecttolerance="10"
     gridtolerance="10"
     guidetolerance="10"
     inkscape:pageopacity="0"
     inkscape:pageshadow="2"
     inkscape:window-width="2560"
     inkscape:window-height="1411"
     id="namedview9"
     showgrid="false"
     inkscape:zoom="2.8548831"
     inkscape:cx="282.67085"
     inkscape:cy="91.176164"
     inkscape:window-x="0"
     inkscape:window-y="1"
     inkscape:window-maximized="1"
     inkscape:current-layer="svg14"
     fit-margin-top="0"
     fit-margin-left="0"
     fit-margin-right="0"
     fit-margin-bottom="0" />
  <defs
     id="defs4">
    <style
       id="style2">.cls-1{font-size:124.7px;font-family:Arial-BoldMT, Arial;font-weight:700;letter-spacing:-0.08em;}</style>
  </defs>
  <path
     style="stroke:none;stroke-width:0.23999999"
     d="m 315.0016,106.00388 c -3.30305,-4.88244 -5.85964,-10.208589 -7.80468,-16.21679 -3.45281,-10.665664 -4.20068,-23.143874 -2.14258,-34.742188 -0.92118,-0.629458 -1.90697,-1.199554 -2.96875,-1.699219 -3.02061,-1.442672 -6.74002,-2.164062 -11.15821,-2.164062 -5.36494,0 -9.9861,1.262432 -13.86328,3.787109 -3.87718,2.524678 -7.10016,6.581517 -9.66992,12.171875 h -0.27148 c 0,-0.991838 -0.0446,-2.207718 -0.13477,-3.650391 -0.0451,-1.442673 -0.11296,-2.885452 -0.20312,-4.328124 -0.0902,-1.442674 -0.18132,-2.751657 -0.27149,-3.923829 -0.0902,-1.217255 -0.17936,-2.095716 -0.26953,-2.636718 h -18.12305 c 0.0902,0.586085 0.15806,1.487822 0.20313,2.705078 0.0451,1.172172 0.0897,2.5238 0.13476,4.05664 0.0902,1.487756 0.13477,3.066284 0.13477,4.734375 0.0451,1.66809 0.0684,3.291217 0.0684,4.869141 v 56.804683 h 19.00195 V 86.548808 c 0,-3.11076 0.3607,-5.949771 1.08203,-8.519531 0.76642,-2.614847 1.82523,-4.846886 3.17774,-6.695313 1.3525,-1.893507 2.95431,-3.336286 4.80273,-4.328124 1.89352,-1.036921 3.9898,-1.554688 6.28907,-1.554688 2.38942,0 4.41784,0.473168 6.08593,1.419922 1.66809,0.946754 3.01972,2.277056 4.05664,3.990234 1.03693,1.668087 1.78159,3.696511 2.23243,6.085938 0.45083,2.344346 0.67578,4.937083 0.67578,7.777344 v 41.04687 h 18.93554 z"
     id="path839"
     inkscape:connector-curvature="0" />
  <path
     id="path844"
     d="m 220.02699,48.667949 c -4.89098,0 -9.54165,0.69341 -13.95312,2.083984 -4.41148,1.390574 -8.3201,3.66923 -11.72461,6.833985 -3.35656,3.116804 -6.04075,7.21604 -8.05469,12.298828 -1.96598,5.08279 -2.94922,11.341057 -2.94922,18.773437 0,6.856964 0.83931,12.849727 2.51758,17.980467 1.67829,5.08278 4.09892,9.32791 7.26367,12.73242 3.16476,3.35656 6.97807,5.8725 11.4375,7.55078 4.50738,1.63032 9.56553,2.44727 15.17578,2.44727 5.51435,0 10.18933,-0.67301 14.0254,-2.01563 3.88401,-1.39057 7.12159,-3.11585 9.71093,-5.17773 0.58414,-0.47597 1.13166,-0.96545 1.66211,-1.46094 V 107.5117 l -10.86914,-0.94336 c -0.95901,3.16476 -2.56466,5.51441 -4.81836,7.04883 -2.25369,1.48648 -5.15476,2.22851 -8.70312,2.22851 -2.925,0 -5.41859,-0.57575 -7.48047,-1.72656 -2.06188,-1.19877 -3.74048,-2.80443 -5.03516,-4.81836 -1.29466,-2.06189 -2.22927,-4.48253 -2.80469,-7.26367 -0.5754,-2.829104 -0.86328,-5.874113 -0.86328,-9.134766 h 40.57422 V 70.949199 c 0,-1.57792 -0.0233,-3.201047 -0.0684,-4.869141 0,-1.668093 -0.0446,-3.246621 -0.13476,-4.734375 -0.0276,-0.938738 -0.0544,-1.680906 -0.082,-2.484375 -2.517,-2.898874 -5.56126,-5.223511 -9.14649,-6.957031 -4.31557,-2.157787 -9.54198,-3.236328 -15.67969,-3.236328 z m -0.28711,12.730469 c 4.45942,0 8.00724,1.581339 10.64454,4.746093 2.63729,3.116805 4.14763,7.816095 4.53125,14.097657 h -30.20899 c 0.0959,-3.35656 0.55202,-6.233316 1.36719,-8.63086 0.81516,-2.397541 1.86939,-4.339696 3.16406,-5.826172 1.34263,-1.534427 2.9016,-2.637282 4.67578,-3.308593 1.82214,-0.719262 3.76429,-1.078125 5.82617,-1.078125 z"
     style="font-weight:700;font-size:124.69999695px;font-family:Arial-BoldMT, Arial;letter-spacing:-0.08em;fill-opacity:1;stroke:none;stroke-width:1.18127477"
     inkscape:connector-curvature="0" />
  <path
     id="path847"
     d="m 162.77504,48.929668 c -5.5827,0 -10.49747,1.098062 -14.74414,3.292968 -4.24667,2.194908 -7.588,5.843675 -10.02148,10.949219 h -0.28516 c 0,-1.002023 -0.0245,-2.169829 -0.0723,-3.505859 -0.0477,-1.336031 -0.11941,-2.624635 -0.21484,-3.865235 -0.0477,-1.2406 -0.14397,-2.338662 -0.28711,-3.292968 -0.0954,-0.954308 -0.18972,-1.597634 -0.28516,-1.931641 h -19.53906 c 0.14314,1.717753 0.26199,4.127017 0.35742,7.228516 0.14314,3.101498 0.21485,6.631421 0.21485,10.591796 v 90.039056 h 20.11133 V 128.7324 c 0,-1.19289 -0.0226,-2.47953 -0.0703,-3.86328 0,-1.43146 -0.0245,-2.76917 -0.0723,-4.00977 -0.0477,-1.28831 -0.0948,-2.40897 -0.14258,-3.36328 -0.0477,-0.9543 -0.0968,-1.55048 -0.14453,-1.78906 h 0.42969 c 1.2406,2.57663 2.71974,4.7482 4.4375,6.51367 1.76546,1.71775 3.6748,3.1252 5.72656,4.22266 2.05175,1.04974 4.19878,1.81191 6.4414,2.28906 2.29034,0.47715 4.58076,0.7168 6.8711,0.7168 5.10554,0 9.51843,-1.00182 13.24023,-3.00586 3.76951,-2.05176 6.8712,-4.86666 9.30469,-8.44532 0.63406,-0.93244 1.22293,-1.91502 1.76953,-2.9414 -1.59216,-2.4899 -2.90628,-5.29488 -3.9375,-8.41797 -1.67827,-5.13074 -2.51758,-11.123503 -2.51758,-17.980467 0,-7.43238 0.98324,-13.690647 2.94922,-18.773437 1.02409,-2.584594 2.22277,-4.912177 3.59375,-6.988282 -0.48883,-0.925095 -1.01031,-1.812489 -1.57031,-2.658203 -2.29034,-3.530936 -5.22603,-6.298688 -8.80469,-8.302734 -3.57865,-2.004045 -7.8236,-3.005859 -12.73828,-3.005859 z m -8.51758,13.957031 c 5.2964,0 9.28106,2.147024 11.95313,6.441406 2.67205,4.246668 4.00781,10.783988 4.00781,19.611328 0,4.676107 -0.35849,8.707919 -1.07422,12.095707 -0.71573,3.38779 -1.7647,6.17814 -3.14844,8.37304 -1.33603,2.1472 -3.00767,3.74519 -5.01172,4.79492 -2.00404,1.00202 -4.29446,1.50391 -6.87109,1.50391 -2.00404,0 -3.98312,-0.40564 -5.93945,-1.2168 -1.95633,-0.85888 -3.72226,-2.29088 -5.29688,-4.29492 -1.52689,-2.00404 -2.76639,-4.67555 -3.7207,-8.01562 -0.95431,-3.387792 -1.43164,-7.610144 -1.43164,-12.667971 0,-5.200973 0.47733,-9.495019 1.43164,-12.882813 1.00203,-3.435506 2.26608,-6.156111 3.79297,-8.160156 1.5746,-2.051761 3.34054,-3.48376 5.29687,-4.294922 2.00404,-0.858876 4.00767,-1.287109 6.01172,-1.287109 z"
     style="font-weight:700;font-size:124.69999695px;font-family:Arial-BoldMT, Arial;letter-spacing:-0.08em;fill-opacity:1;stroke:none;stroke-width:1.17547393"
     inkscape:connector-curvature="0" />
  <path
     style="stroke:none;stroke-width:0.23999999"
     d="m 558.83125,156.65547 c -6.35489,-0.28656 -13.20413,-1.61217 -20.25128,-3.91944 -2.72191,-0.89116 -6.47479,-2.30201 -6.71091,-2.52288 -0.14217,-0.13299 -0.63961,-19.35797 -0.51359,-19.84906 0.007,-0.0266 1.62866,0.74428 3.60409,1.71299 10.33215,5.06672 19.17542,7.20944 26.38334,6.39269 5.10852,-0.57885 7.91745,-1.77804 10.69325,-4.56513 3.11865,-3.13136 3.97432,-5.52511 4.23494,-11.84735 0.0941,-2.28196 0.0694,-3.79213 -0.061,-3.73514 -0.12038,0.0526 -1.67688,0.82024 -3.45888,1.70581 -5.28266,2.62525 -8.75292,3.42252 -14.76,3.39101 -9.72214,-0.051 -17.42109,-3.163 -23.58097,-9.53169 -3.77602,-3.90402 -6.36427,-8.2472 -8.07622,-13.55223 -2.82592,-8.757022 -2.72369,-20.30585 0.25744,-29.082648 1.96337,-5.7804 4.77831,-10.251319 9.30337,-14.776378 6.41878,-6.418782 12.78342,-9.439822 22.02548,-10.454602 5.9892,-0.65762 13.26236,0.63125 19.74812,3.49957 l 1.3078,0.57837 8.46749,-0.33625 c 4.65711,-0.18493 9.46995,-0.3395 10.69519,-0.34347 l 2.22771,-0.007 -0.0795,38.219996 c -0.0868,41.738792 -0.0256,39.861342 -1.47423,45.201462 -2.62553,9.67847 -9.20553,17.09605 -18.50167,20.85673 -5.96239,2.41204 -12.80249,3.35618 -21.48,2.96488 z m 9.38069,-51.06242 c 1.71429,-0.64665 3.89016,-1.97628 5.72861,-3.50065 l 1.44727,-1.2 0.002,-16.631828 0.002,-16.631829 -1.74,-0.820589 c -0.957,-0.451322 -2.38368,-0.985999 -3.17043,-1.18817 -1.82884,-0.469968 -5.37825,-0.471922 -7.21915,-0.004 -5.98265,1.520767 -10.90406,7.085443 -12.7613,14.429318 -0.32467,1.283741 -0.41674,2.679454 -0.41736,6.327074 0,4.119464 0.0648,4.924337 0.5472,6.72 1.44758,5.38904 4.82337,9.951464 8.86346,11.979094 2.56373,1.28667 6.12509,1.49973 8.71827,0.52155 z m -201.10568,26.37778 c -15.46434,-1.29453 -28.64037,-7.2364 -39.56634,-17.84288 -7.77402,-7.5467 -12.97093,-15.922324 -16.34349,-26.34009 -3.74365,-11.564072 -4.31415,-25.262156 -1.56826,-37.655458 2.75534,-12.43601 9.31918,-24.18755 18.23109,-32.64 6.10678,-5.79193 14.0135,-10.7151104 21.7784,-13.5604904 15.92717,-5.83636 34.53847,-5.14383 50.19359,1.86771 2.8712,1.28594 9.28102,4.8706904 10.38549,5.8081704 0.036,0.0306 -0.63898,7.08202 -1.5,15.66988 -0.86102,8.58786 -1.56549,15.68966 -1.56549,15.78179 0,0.0921 -0.98457,-0.76946 -2.18794,-1.91462 -7.61307,-7.24482 -15.21568,-11.52807 -23.73206,-13.37044 -2.19104,-0.474 -3.20924,-0.54516 -7.8,-0.54516 -5.857,0 -8.05577,0.32373 -12.28522,1.80876 -10.76593,3.78011 -19.03565,13.2201 -22.03966,25.158558 -1.76562,7.016901 -1.75207,16.3516 0.034,23.415842 2.96972,11.745874 11.18583,20.882076 22.01246,24.477548 3.21034,1.06614 5.5207,1.51901 9.29233,1.82144 12.46586,0.99961 26.2497,-4.000098 38.54723,-13.981953 0.94662,-0.768369 1.77756,-1.397035 1.84654,-1.397035 0.069,0 0.0674,1.161 -0.004,2.58 -0.10956,2.191615 -0.65034,4.838047 -3.59238,17.579998 -1.90487,8.25 -3.55877,15.22612 -3.67533,15.50248 -0.50706,1.20222 -11.2072,5.23501 -17.05641,6.42841 -6.23557,1.27224 -13.92542,1.80624 -19.40499,1.34754 z m 40.34831,-7.58237 c 0.0656,-0.34316 6.36919,-27.450099 14.00797,-60.237636 l 13.88871,-59.6137024 13.88602,-0.002 13.88602,-0.002 -0.13166,0.54 c -0.0724,0.297 -4.47274,19.1700004 -9.77853,41.9400004 l -9.64688,41.399999 -8.95436,18.119999 -8.95435,18.12 -3.55313,0.14902 c -1.95422,0.082 -6.07672,0.16295 -9.16111,0.18 l -5.60798,0.031 z m 22.09157,0.055 c 0.0702,-0.18308 13.4379,-27.237955 29.70588,-60.121942 l 29.57814,-59.7891164 0.86055,0.009 0.86054,0.009 16.41714,33.9824004 16.41713,33.982399 -0.50466,1.588622 c -2.23139,7.024272 -2.6135,16.602595 -0.96817,24.268625 1.54327,7.190472 4.47939,12.692822 9.42662,17.665692 4.36935,4.392 8.5356,6.7792 14.77194,8.46407 0.55617,0.15026 -3.78241,0.23265 -12.84,0.24384 l -13.68,0.0169 -1.04981,-2.45524 c -0.57739,-1.35045 -2.23746,-5.18231 -3.68903,-8.51531 l -2.63922,-6.06 h -23.68057 -23.68057 l -3.75568,8.46 -3.75567,8.46 -13.96115,0.0619 c -11.82397,0.0525 -13.94159,0.011 -13.83341,-0.27093 z m 74.01277,-36.931058 c -6.295,-15.267022 -14.89161,-35.86882 -15.02463,-36.00656 -0.12582,-0.1303 -14.50005,33.160237 -15.58303,36.090128 -0.047,0.127159 6.27451,0.216432 15.32568,0.216432 12.23051,0 15.38018,-0.06183 15.28198,-0.3 z"
     id="path831"
     inkscape:connector-curvature="0" />
  <path
     style="stroke-width:2.02734351;stroke-miterlimit:4;stroke-dasharray:none;stroke-dashoffset:0;stroke-opacity:1"
     d="M 64.626953 2.0332031 A 63.506493 63.506493 0 0 0 1.1210938 65.539062 A 63.506493 63.506493 0 0 0 64.626953 129.04492 A 63.506493 63.506493 0 0 0 113.89844 105.55469 L 113.89844 64.396484 C 113.89844 60.436109 113.82673 56.906185 113.68359 53.804688 C 113.58816 50.703189 113.46931 48.293925 113.32617 46.576172 L 125.22461 46.576172 A 63.506493 63.506493 0 0 0 64.626953 2.0332031 z M 64.626953 27.826172 A 37.713162 37.713162 0 0 1 102.33789 65.539062 A 37.713162 37.713162 0 0 1 64.626953 103.25195 A 37.713162 37.713162 0 0 1 26.912109 65.539062 A 37.713162 37.713162 0 0 1 64.626953 27.826172 z "
     id="path827" />
</svg>
