<?xml version="1.0" encoding="UTF-8" standalone="no"?>
<svg
   xmlns:dc="http://purl.org/dc/elements/1.1/"
   xmlns:cc="http://creativecommons.org/ns#"
   xmlns:rdf="http://www.w3.org/1999/02/22-rdf-syntax-ns#"
   xmlns:svg="http://www.w3.org/2000/svg"
   xmlns="http://www.w3.org/2000/svg"
   viewBox="0 0 283.50192 151.94326"
   height="151.94325"
   width="283.50192"
   id="svg2"
   version="1.1">
  <metadata
     id="metadata8">
    <rdf:RDF>
      <cc:Work
         rdf:about="">
        <dc:format>image/svg+xml</dc:format>
        <dc:type
           rdf:resource="http://purl.org/dc/dcmitype/StillImage" />
        <dc:title></dc:title>
      </cc:Work>
    </rdf:RDF>
  </metadata>
  <defs
     id="defs6" />
  <path
     id="path819"
     d="m 243.23793,151.86027 c -6.16036,-0.27779 -12.79995,-1.56282 -19.63139,-3.79947 -2.6386,-0.86388 -6.2766,-2.23154 -6.50549,-2.44565 -0.13782,-0.12892 -0.62003,-18.76543 -0.49787,-19.24148 0.007,-0.0257 1.57881,0.72149 3.49377,1.66056 10.01589,4.91162 18.58846,6.98875 25.57575,6.197 4.95215,-0.56113 7.6751,-1.72361 10.36593,-4.42539 3.02319,-3.03551 3.85267,-5.35598 4.10531,-11.48471 0.0912,-2.21211 0.0673,-3.67605 -0.0591,-3.6208 -0.1167,0.051 -1.62555,0.79513 -3.35301,1.65359 -5.12096,2.54489 -8.48499,3.31776 -14.30819,3.28722 -9.42455,-0.0494 -16.88784,-3.06618 -22.85916,-9.23993 -3.66044,-3.78452 -6.16946,-7.99476 -7.82901,-13.1374 -2.73942,-8.48897 -2.64032,-19.6843 0.24956,-28.19243 1.90327,-5.603471 4.63205,-9.937531 9.0186,-14.324081 6.2223,-6.22231 12.39211,-9.15087 21.35128,-10.13459 5.80587,-0.63749 12.85639,0.61193 19.14363,3.39245 l 1.26777,0.56066 8.2083,-0.32594 c 4.51455,-0.17928 9.18007,-0.32912 10.36781,-0.33298 l 2.15951,-0.007 -0.0771,37.050101 c -0.0841,40.46118 -0.0248,38.64119 -1.4291,43.81786 -2.54516,9.38221 -8.92375,16.57274 -17.93534,20.2183 -5.77988,2.33822 -12.4106,3.25345 -20.8225,2.87413 z m 9.09355,-49.49941 c 1.66181,-0.62685 3.77107,-1.91578 5.55325,-3.39349 l 1.40297,-1.16327 0.002,-16.12273 0.002,-16.122741 -1.68674,-0.79547 c -0.9277,-0.4375 -2.31071,-0.95581 -3.07337,-1.15179 -1.77287,-0.45559 -5.21363,-0.45748 -6.99817,-0.004 -5.79953,1.47422 -10.57029,6.868551 -12.37069,13.987631 -0.31473,1.24445 -0.40398,2.59744 -0.40458,6.13341 0,3.99337 0.0629,4.77361 0.53045,6.5143 1.40327,5.22408 4.67573,9.64686 8.59215,11.61242 2.48525,1.24729 5.9376,1.45382 8.4514,0.50559 z M 57.381633,127.93123 C 42.390652,126.67632 29.617943,120.91633 19.026412,110.63451 11.49035,103.31881 6.4525207,95.19957 3.1831967,85.10068 -0.44586427,73.89059 -0.99889527,60.611799 1.6629347,48.597859 4.3339377,36.542508 10.696855,25.150674 19.335976,16.956955 25.255827,11.342317 32.920528,6.5698351 40.447744,3.8115521 c 15.439639,-5.657707 33.481249,-4.986371 48.657169,1.810547 2.78331,1.246572 8.99693,4.7215889 10.06758,5.6303779 0.0349,0.02966 -0.61941,6.865237 -1.45408,15.190224 -0.83466,8.324987 -1.51756,15.209411 -1.51756,15.298707 0,0.08931 -0.95444,-0.745895 -2.12098,-1.856009 -7.38003,-7.023057 -14.74992,-11.17519 -23.00562,-12.96117 -2.12397,-0.459491 -3.111,-0.528473 -7.56124,-0.528473 -5.67772,0 -7.80918,0.313813 -11.90917,1.753394 -10.43639,3.664404 -18.452974,12.815434 -21.365026,24.388459 -1.71158,6.80211 -1.698447,15.85108 0.03294,22.699081 2.878818,11.38634 10.843436,20.24288 21.338666,23.7283 3.11207,1.03351 5.35171,1.47251 9.00789,1.76569 12.08428,0.96901 25.4462,-3.87766 37.36731,-13.55397 0.91764,-0.74485 1.72315,-1.35427 1.79002,-1.35427 0.0669,0 0.0653,1.12546 -0.004,2.50103 -0.10621,2.12452 -0.63043,4.68995 -3.48242,17.04187 -1.84656,7.99747 -3.44984,14.76005 -3.56283,15.02796 -0.49154,1.16541 -10.86415,5.07476 -16.53431,6.23164 -6.04471,1.23329 -13.49917,1.75095 -18.81101,1.30629 z m 39.11325,-7.35028 c 0.0636,-0.33266 6.174217,-26.60986 13.579177,-58.393771 l 13.46358,-57.7889399 13.46097,-0.0022 13.46097,-0.0022 -0.12763,0.52347 c -0.0702,0.287909 -4.33583,18.5832159 -9.47921,40.6562299 l -9.3516,40.132751 -8.68025,17.56535 -8.68027,17.56535 -3.44437,0.14446 c -1.8944,0.0794 -5.89071,0.15796 -8.88068,0.17449 l -5.436317,0.03 z m 21.415337,0.0533 c 0.0681,-0.17748 13.02657,-26.40421 28.79659,-58.281621 l 28.67276,-57.9589389 0.8342,0.0087 0.8342,0.0087 15.91461,32.9422059 15.91461,32.942204 -0.48921,1.53999 c -2.16309,6.80926 -2.53351,16.0944 -0.93853,23.52577 1.49602,6.97037 4.34226,12.30429 9.13806,17.12495 4.23561,4.25756 8.27434,6.57168 14.31978,8.20499 0.53914,0.14566 -3.66663,0.22552 -12.44697,0.23637 l -13.26126,0.0164 -1.01767,-2.38009 c -0.55972,-1.30905 -2.16897,-5.02362 -3.57611,-8.25459 l -2.55844,-5.87451 h -22.9557 -22.95571 l -3.64072,8.20104 -3.64072,8.20104 -13.53379,0.0601 c -11.46205,0.0509 -13.51484,0.0107 -13.40998,-0.26264 z m 71.74725,-35.80056 c -6.10232,-14.79972 -14.43578,-34.770911 -14.56473,-34.904431 -0.12197,-0.12631 -14.0562,32.145211 -15.10603,34.985421 -0.0456,0.12327 6.08244,0.20981 14.85656,0.20981 11.85614,0 14.90939,-0.0599 14.8142,-0.29082 z"
     style="stroke-width:0.23265362" />
</svg>
