<?xml version="1.0" encoding="UTF-8" standalone="no"?>
<svg
   xmlns:dc="http://purl.org/dc/elements/1.1/"
   xmlns:cc="http://creativecommons.org/ns#"
   xmlns:rdf="http://www.w3.org/1999/02/22-rdf-syntax-ns#"
   xmlns:svg="http://www.w3.org/2000/svg"
   xmlns="http://www.w3.org/2000/svg"
   xmlns:sodipodi="http://sodipodi.sourceforge.net/DTD/sodipodi-0.dtd"
   xmlns:inkscape="http://www.inkscape.org/namespaces/inkscape"
   viewBox="0 0 613.68538 157.2"
   version="1.1"
   id="svg14"
   sodipodi:docname="logo.svg"
   inkscape:version="0.92.2 (5c3e80d, 2017-08-06)">
  <defs
     id="defs4">
    <style
       id="style2">.cls-1{font-size:124.7px;font-family:Arial-BoldMT, Arial;font-weight:700;letter-spacing:-0.08em;}</style>
  </defs>
  <title
     id="title6">Ativo 1</title>
  <g
     data-name="Camada 1"
     id="Camada_1-2"
     transform="translate(-5.1146483)">
    <path
       style="stroke-width:0.23999999;stroke:none"
       d="m 577.04,156.92307 c -6.35489,-0.28656 -13.20413,-1.61217 -20.25128,-3.91944 -2.72191,-0.89116 -6.47479,-2.30201 -6.71091,-2.52288 -0.14217,-0.13299 -0.63961,-19.35797 -0.51359,-19.84906 0.007,-0.0266 1.62866,0.74428 3.60409,1.71299 10.33215,5.06672 19.17542,7.20944 26.38334,6.39269 5.10852,-0.57885 7.91745,-1.77804 10.69325,-4.56513 3.11865,-3.13136 3.97432,-5.52511 4.23494,-11.84735 0.0941,-2.28196 0.0694,-3.79213 -0.061,-3.73514 -0.12038,0.0526 -1.67688,0.82024 -3.45888,1.70581 -5.28266,2.62525 -8.75292,3.42252 -14.76,3.39101 -9.72214,-0.051 -17.42109,-3.163 -23.58097,-9.53169 -3.77602,-3.90402 -6.36427,-8.2472 -8.07622,-13.55223 -2.82592,-8.757024 -2.72369,-20.305852 0.25744,-29.08265 1.96337,-5.7804 4.77831,-10.251319 9.30337,-14.776378 6.41878,-6.418783 12.78342,-9.439821 22.02548,-10.454604 5.9892,-0.657619 13.26236,0.631256 19.74812,3.49957 l 1.3078,0.578371 8.46749,-0.336245 c 4.65711,-0.184934 9.46995,-0.339499 10.69519,-0.343478 l 2.22771,-0.0072 -0.0795,38.22 c -0.0868,41.738794 -0.0256,39.861344 -1.47423,45.201464 -2.62553,9.67847 -9.20553,17.09605 -18.50167,20.85673 -5.96239,2.41204 -12.80249,3.35618 -21.48,2.96488 z m 9.38069,-51.06242 c 1.71429,-0.64665 3.89016,-1.97628 5.72861,-3.50065 l 1.44727,-1.2 0.002,-16.63183 0.002,-16.631829 -1.74,-0.820589 c -0.957,-0.451322 -2.38368,-0.985999 -3.17043,-1.18817 -1.82884,-0.469968 -5.37825,-0.471922 -7.21915,-0.004 -5.98265,1.520767 -10.90406,7.085443 -12.7613,14.429318 -0.32467,1.283741 -0.41674,2.679454 -0.41736,6.327074 0,4.119464 0.0648,4.924337 0.5472,6.72 1.44758,5.38904 4.82337,9.951466 8.86346,11.979096 2.56373,1.28667 6.12509,1.49973 8.71827,0.52155 z m -201.10568,26.37778 c -15.46434,-1.29453 -28.64037,-7.2364 -39.56634,-17.84288 -7.77402,-7.5467 -12.97093,-15.922326 -16.34349,-26.340092 C 325.66153,76.491386 325.09103,62.793302 327.83692,50.4 c 2.75534,-12.436008 9.31918,-24.187555 18.23109,-32.64 6.10678,-5.791931 14.0135,-10.7151142 21.7784,-13.560487 15.92717,-5.8363586 34.53847,-5.143829 50.19359,1.8677117 2.8712,1.2859383 9.28102,4.8706823 10.38549,5.8081633 0.036,0.03057 -0.63898,7.082019 -1.5,15.66988 -0.86102,8.58786 -1.56549,15.689666 -1.56549,15.781788 0,0.09212 -0.98457,-0.769452 -2.18794,-1.914614 -7.61307,-7.244823 -15.21568,-11.528069 -23.73206,-13.370444 -2.19104,-0.473995 -3.20924,-0.545157 -7.8,-0.545157 -5.857,0 -8.05577,0.323726 -12.28522,1.80876 -10.76593,3.78011 -19.03565,13.2201 -22.03966,25.158557 -1.76562,7.016901 -1.75207,16.3516 0.034,23.415842 2.96972,11.745874 11.18583,20.882076 22.01246,24.47755 3.21034,1.06614 5.5207,1.51901 9.29233,1.82144 12.46586,0.99961 26.2497,-4.0001 38.54723,-13.981955 C 428.14776,89.428666 428.9787,88.8 429.04768,88.8 c 0.069,0 0.0674,1.161 -0.004,2.58 -0.10956,2.191615 -0.65034,4.838047 -3.59238,17.58 -1.90487,8.25 -3.55877,15.22612 -3.67533,15.50248 -0.50706,1.20222 -11.2072,5.23501 -17.05641,6.42841 -6.23557,1.27224 -13.92542,1.80624 -19.40499,1.34754 z m 40.34831,-7.58237 c 0.0656,-0.34316 6.36919,-27.450101 14.00797,-60.237638 L 453.56,4.8047194 467.44602,4.8023597 481.33204,4.8 481.20038,5.34 c -0.0724,0.297 -4.47274,19.17 -9.77853,41.94 l -9.64688,41.4 -8.95436,18.12 -8.95435,18.12 -3.55313,0.14902 c -1.95422,0.082 -6.07672,0.16295 -9.16111,0.18 l -5.60798,0.031 z m 22.09157,0.055 c 0.0702,-0.18308 13.4379,-27.237957 29.70588,-60.121944 L 507.03891,4.8 l 0.86055,0.00898 0.86054,0.00898 16.41714,33.9824 16.41713,33.982399 -0.50466,1.588622 c -2.23139,7.024272 -2.6135,16.602595 -0.96817,24.268625 1.54327,7.190474 4.47939,12.692824 9.42662,17.665694 4.36935,4.392 8.5356,6.7792 14.77194,8.46407 0.55617,0.15026 -3.78241,0.23265 -12.84,0.24384 l -13.68,0.0169 -1.04981,-2.45524 C 536.1728,121.22486 534.51273,117.393 533.06116,114.06 L 530.42194,108 H 506.74137 483.0608 l -3.75568,8.46 -3.75567,8.46 -13.96115,0.0619 c -11.82397,0.0525 -13.94159,0.011 -13.83341,-0.27093 z M 521.76766,87.78 C 515.47266,72.512978 506.87605,51.911179 506.74303,51.773436 506.61721,51.643138 492.24298,84.933677 491.16,87.863568 491.113,87.990727 497.43451,88.08 506.48568,88.08 c 12.23051,0 15.38018,-0.06183 15.28198,-0.3 z"
       id="path1451"
       inkscape:connector-curvature="0" />
    <text
       style="font-weight:700;font-size:124.69999695px;font-family:Arial-BoldMT, Arial;letter-spacing:-0.08em;fill-opacity:1;stroke:none;"
       id="text8"
       transform="translate(0,115.52)"
       class="cls-1">OPEN</text>
  </g>
</svg>
