<?xml version="1.0" encoding="UTF-8" standalone="no"?>
<svg
   xmlns:dc="http://purl.org/dc/elements/1.1/"
   xmlns:cc="http://creativecommons.org/ns#"
   xmlns:rdf="http://www.w3.org/1999/02/22-rdf-syntax-ns#"
   xmlns:svg="http://www.w3.org/2000/svg"
   xmlns="http://www.w3.org/2000/svg"
   id="svg8"
   version="1.1"
   viewBox="0 0 67.351967 67.351967"
   height="67.351967mm"
   width="67.351967mm">
  <defs
     id="defs2" />
  <metadata
     id="metadata5">
    <rdf:RDF>
      <cc:Work
         rdf:about="">
        <dc:format>image/svg+xml</dc:format>
        <dc:type
           rdf:resource="http://purl.org/dc/dcmitype/StillImage" />
        <dc:title></dc:title>
      </cc:Work>
    </rdf:RDF>
  </metadata>
  <g
     transform="translate(-73.499096,-67.682626)"
     id="layer1">
    <path
       id="path815"
       d="m 107.17508,67.682626 a 33.67596,33.67596 0 0 0 -33.675984,33.675984 33.67596,33.67596 0 0 0 33.675984,33.67598 33.67596,33.67596 0 0 0 33.67598,-33.67598 33.67596,33.67596 0 0 0 -33.67598,-33.675984 z m 0,13.363525 a 20.312483,20.312483 0 0 1 20.31245,20.312459 20.312483,20.312483 0 0 1 -20.31245,20.31245 20.312483,20.312483 0 0 1 -20.312459,-20.31245 20.312483,20.312483 0 0 1 20.312459,-20.312459 z"
       style="opacity:1;fill:#00466f;fill-opacity:1;stroke:none;stroke-width:0.52066118;stroke-miterlimit:4;stroke-dasharray:none;stroke-dashoffset:0;stroke-opacity:1" />
  </g>
</svg>
